# xmcd
#
# Track frame offsets:
#	150
#	14524
#	35028
#	54277
#	68157
#	84573
#	98524
#	120051
#	139760
#	150210
#	161348
#	171808
#	193122
#	207976
#	229578
#	250566
#	270346
#	283772
#	299931
#	319517
#
# Disc length: 4439 seconds
#
# Revision: 2
# Processed by: cddbd v1.4b42PL1 Copyright (c) Steve Scherf et al.
# Submitted via: EZCDDA 4.3.2
#
DISCID=09115514
DTITLE=Big Walter Horton - Back home to mama
DYEAR=1900
DGENRE=
TTITLE0=Big Walter Horton - Back Home To Mama
TTITLE1=Big Walter Horton - Blues With A Feeling
TTITLE2=Big Walter Horton - Good Moanin' Blues
TTITLE3=Big Walter Horton - Hard Hearted Woman
TTITLE4=Big Walter Horton - Honeydripper
TTITLE5=Big Walter Horton - In The Mood
TTITLE6=Big Walter Horton - It's Not Easy
TTITLE7=Big Walter Horton - Jukin' With Walter
TTITLE8=Big Walter Horton - Jumpin' Blues
TTITLE9=Big Walter Horton - Kentucky Fried
TTITLE10=Big Walter Horton - Need My Baby
TTITLE11=Big Walter Horton - Rockin' My Boogie
TTITLE12=Big Walter Horton - Sugar Momma
TTITLE13=Big Walter Horton - Tin Pan Alley
TTITLE14=Big Walter Horton - Trouble In Mind
TTITLE15=Big Walter Horton - Two Old Maids
TTITLE16=Big Walter Horton - Walter's Instrumental
TTITLE17=Big Walter Horton - Walter's Shuffle
TTITLE18=Big Walter Horton - Walter's Swing
TTITLE19=Big Walter Horton - We All Gotta Go Sometime
EXTD=
EXTT0=
EXTT1=
EXTT2=
EXTT3=
EXTT4=
EXTT5=
EXTT6=
EXTT7=
EXTT8=
EXTT9=
EXTT10=
EXTT11=
EXTT12=
EXTT13=
EXTT14=
EXTT15=
EXTT16=
EXTT17=
EXTT18=
EXTT19=
PLAYORDER=
